<svg xmlns="http://www.w3.org/2000/svg" width="32" height="32" viewBox="0 0 32 32">
  <path fill="#1A1A1A" fill-opacity=".9" fill-rule="evenodd" d="M9.3986014,13.1009852 L9.3986014,27 L4.33566434,27 L4.33566434,13.1009852 L9.3986014,13.1009852 Z M4,7.7635468 C4,7.38423456 4.07459132,7.02750578 4.22377623,6.69334976 C4.37296112,6.35919374 4.57808727,6.06568271 4.83916084,5.81280789 C5.10023441,5.55993306 5.40326168,5.36124867 5.74825175,5.21674876 C6.09324182,5.07224887 6.4615365,5 6.85314686,5 C7.2447572,5 7.61305189,5.07224887 7.95804196,5.21674876 C8.30303203,5.36124867 8.60605931,5.55993306 8.86713287,5.81280789 C9.12820644,6.06568271 9.33333259,6.35919374 9.48251745,6.69334976 C9.63170233,7.02750578 9.70629367,7.38423456 9.70629367,7.7635468 C9.70629367,8.14285904 9.63170233,8.49958782 9.48251745,8.83374384 C9.33333259,9.16789987 9.12820644,9.46141091 8.86713287,9.71428573 C8.60605931,9.96716055 8.30303203,10.165845 7.95804196,10.3103448 C7.61305189,10.4548448 7.2447572,10.5270936 6.85314686,10.5270936 C6.4615365,10.5270936 6.09324182,10.4548448 5.74825175,10.3103448 C5.40326168,10.165845 5.10023441,9.96716055 4.83916084,9.71428573 C4.57808727,9.46141091 4.37296112,9.16789987 4.22377623,8.83374384 C4.07459132,8.49958782 4,8.14285904 4,7.7635468 Z M12.8671328,13.1009852 L17.93007,13.1009852 L17.93007,14.8620689 C18.6200501,14.049257 19.3193438,13.5028749 20.027972,13.2229064 C20.7366003,12.9429379 21.5664288,12.8029557 22.5174825,12.8029557 C23.5244805,12.8029557 24.3869428,12.9610001 25.1048951,13.2770936 C25.8228474,13.5931871 26.433564,14.040227 26.9370629,14.6182266 C27.3473214,15.0878513 27.6270389,15.6116556 27.7762238,16.1896552 C27.9254087,16.7676548 28,17.4269257 28,18.1674876 L28,27 L22.937063,27 L22.937063,19.9827587 C22.937063,19.2963841 22.8857814,18.7409709 22.7832168,18.3165024 C22.6806522,17.892034 22.4988359,17.5533674 22.2377622,17.3004926 C22.0139849,17.0837428 21.7622392,16.9302139 21.4825175,16.8399015 C21.2027958,16.7495891 20.9044304,16.7044335 20.5874126,16.7044335 C19.7295995,16.7044335 19.0722633,16.952789 18.6153846,17.4495074 C18.1585059,17.9462258 17.93007,18.6551678 17.93007,19.5763546 L17.93007,27 L12.8671328,27 L12.8671328,13.1009852 Z"/>
</svg>
