<svg xmlns="http://www.w3.org/2000/svg" width="24" height="24" viewBox="0 0 24 24">
  <path fill="#1A1A1A" fill-opacity=".9" fill-rule="evenodd" d="M4.81381787,8.88081456 C6.17596463,7.48950058 6.85696714,7.85778516 7.79324815,9.2081529 C8.64480958,10.4355593 8.38900664,11.2541981 7.79324815,11.785927 C7.41010362,12.1132244 6.43063363,12.6865128 6.94168672,13.5455937 L6.94168672,13.5455937 C7.66634029,14.7730409 9.07100985,16.2458795 10.305163,17.0235175 C11.1562142,17.5552465 11.837245,16.6551785 12.2203896,16.3278401 C12.8161339,15.7551241 13.6671283,15.591707 14.8592123,16.491775 C16.1791963,17.4738036 16.5196337,18.1694402 14.9871123,19.3968468 C9.87884934,22.3839469 1.32340538,13.5455528 4.81381787,8.88081456 Z M11,4 C15.9705627,4 20,8.02943725 20,13 C20,13.5522847 19.5522847,14 19,14 C18.4477153,14 18,13.5522847 18,13 C18,9.13400675 14.8659932,6 11,6 C10.4477153,6 10,5.55228475 10,5 C10,4.44771525 10.4477153,4 11,4 Z M11,8 C13.7614237,8 16,10.2385763 16,13 C16,13.5522847 15.5522847,14 15,14 C14.4477153,14 14,13.5522847 14,13 C14,11.3431458 12.6568542,10 11,10 C10.4477153,10 10,9.55228475 10,9 C10,8.44771525 10.4477153,8 11,8 Z"/>
</svg>
