<svg xmlns="http://www.w3.org/2000/svg" width="32" height="32" viewBox="0 0 32 32">
  <path fill="#1A1A1A" fill-opacity=".9" fill-rule="evenodd" d="M16,4 C19.9083712,4 20.3712795,4.01487443 21.9147335,4.08529553 C23.3418648,4.15042923 24.1169037,4.38888486 24.6327441,4.58928286 C25.3159217,4.85481457 25.8035821,5.17205816 26.3157619,5.68423805 C26.8279418,6.19641793 27.1451854,6.68407826 27.410659,7.36725593 C27.6111152,7.88309632 27.8495707,8.65813518 27.9147045,10.0852084 C27.9851255,11.6287205 28,12.0916288 28,16 C28,19.9083712 27.9851255,20.3712795 27.9147045,21.9147335 C27.8495707,23.3418648 27.6111152,24.1169037 27.410659,24.6327441 C27.1451854,25.3159217 26.8279418,25.8035821 26.3157619,26.3157619 C25.8035821,26.8279418 25.3159217,27.1451854 24.6327441,27.410659 C24.1169037,27.6111152 23.3418648,27.8495707 21.9147335,27.9147045 C20.371512,27.9851255 19.9086036,28 16,28 C12.0913964,28 11.628488,27.9851255 10.0852665,27.9147045 C8.65813518,27.8495707 7.88309632,27.6111152 7.36731403,27.410659 C6.68407826,27.1451854 6.19641793,26.8279418 5.68423805,26.3157619 C5.17205816,25.8035821 4.85481457,25.3159217 4.58934096,24.6327441 C4.38888486,24.1169037 4.15042923,23.3418648 4.08529553,21.9147917 C4.01487443,20.3712795 4,19.9083712 4,16 C4,12.0916288 4.01487443,11.6287205 4.08529553,10.0852665 C4.15042923,8.65813518 4.38888486,7.88309632 4.58934096,7.36725593 C4.85481457,6.68407826 5.17205816,6.19641793 5.68423805,5.68423805 C6.19641793,5.17205816 6.68407826,4.85481457 7.36731403,4.58928286 C7.88309632,4.38888486 8.65813518,4.15042923 10.0852084,4.08529553 C11.6287205,4.01487443 12.0916288,4 16,4 Z M16.0290715,8.50702011 C11.8748077,8.50702011 8.50707822,11.8747497 8.50707822,16.0290134 C8.50707822,20.1832771 11.8748077,23.5510067 16.0290715,23.5510067 C20.1833352,23.5510067 23.5510648,20.1832771 23.5510648,16.0290134 C23.5510648,11.8747497 20.1833352,8.50702011 16.0290715,8.50702011 Z M16.0290715,20.9117241 C13.3324574,20.9117241 11.1463608,18.7256275 11.1463608,16.0290134 C11.1463608,13.3323993 13.3324574,11.1463027 16.0290715,11.1463027 C18.7256856,11.1463027 20.9117822,13.3323993 20.9117822,16.0290134 C20.9117822,18.7256275 18.7256856,20.9117241 16.0290715,20.9117241 Z M25.525951,8.15848195 C25.525951,7.196091 24.7458241,6.41596407 23.7834331,6.41596407 C22.8210422,6.41596407 22.0408576,7.196091 22.0408576,8.15848195 C22.0408576,9.1208729 22.8210422,9.90105747 23.7834331,9.90105747 C24.7458241,9.90105747 25.525951,9.1208729 25.525951,8.15848195 Z"/>
</svg>
