<svg xmlns="http://www.w3.org/2000/svg" width="32" height="32" viewBox="0 0 32 32">
  <path fill="#1A1A1A" fill-opacity=".9" fill-rule="evenodd" d="M25.9371368,8.47811642 C27.038974,7.7917088 27.884428,6.70330781 28.2812115,5.40676008 C27.2495745,6.0439116 26.109585,6.5046945 24.8932911,6.75415282 C23.9226977,5.67369637 22.5354816,5 21.0002348,5 C18.0548806,5 15.6680754,7.48663874 15.6680754,10.5532284 C15.6680754,10.9885888 15.712332,11.4128268 15.8038974,11.817998 C11.3721312,11.5860176 7.44244879,9.37743753 4.80994307,6.01531128 C4.35058989,6.83836487 4.08810237,7.7917088 4.08810237,8.80860898 C4.08810237,10.7343637 5.02970006,12.4344937 6.46117274,13.432327 C5.58672301,13.4037267 4.76416036,13.1510906 4.04384575,12.7379749 L4.04384575,12.8062978 C4.04384575,15.4979055 5.88125844,17.7430305 8.32452897,18.2514806 C7.87585843,18.3817709 7.40582262,18.4469161 6.91747373,18.4469161 C6.57410342,18.4469161 6.23836356,18.413549 5.91483242,18.3484039 C6.59241651,20.5538062 8.56259905,22.1617796 10.8975172,22.2046801 C9.07078711,23.6950744 6.77096907,24.5816842 4.27275929,24.5816842 C3.84240183,24.5816842 3.41662264,24.5578506 3,24.5054167 C5.36086165,26.0800231 8.16428949,27 11.1767917,27 C20.9895522,27 26.3522334,18.5374837 26.3522334,11.1983244 C26.3522334,10.9568106 26.3491812,10.7168857 26.3384986,10.4801387 C27.3808182,9.69680774 28.2873158,8.71804131 29,7.60421782 C28.0431414,8.04593384 27.0145566,8.34464827 25.9371368,8.47811642 Z"/>
</svg>
