<svg xmlns="http://www.w3.org/2000/svg" width="138" height="40" viewBox="0 0 138 40">
  <g fill="none" fill-rule="evenodd" transform="translate(0 4)">
    <polygon fill="#C10" points="21.767 0 8.93 0 1.116 14.286 10.047 14.286 0 32 24 9.714 13.953 9.714"/>
    <path fill="#FFF" fill-rule="nonzero" d="M21.1856325,22.4818482 L21.1856325,11.4983498 L25.8156616,17.0693069 L26.7416674,17.0693069 L31.4775257,11.4719472 L31.4775257,22.4818482 L36.6631582,22.4818482 L36.6631582,4 L31.2129526,4 L26.3448078,10.2574257 L21.4766629,4 L16,4 L16,22.4818482 L21.1856325,22.4818482 Z M46.1992926,28 L54.2952291,9.43894389 L49.0831392,9.43894389 L47.866103,12.5280528 L46.2786645,17.0693069 L44.8499698,12.5544554 L43.7387628,9.43894389 L38.5795876,9.43894389 L43.7652201,21.9009901 L41.1194893,28 L46.1992926,28 Z M65.6304604,22.4818482 C66.4770943,22.4818482 67.3281377,22.3938394 68.1835907,22.2178218 C69.0390437,22.0418042 69.8063057,21.7425743 70.4853766,21.320132 C71.1644475,20.8976898 71.720051,20.3432343 72.152187,19.6567657 C72.5843231,18.970297 72.8003911,18.1078108 72.8003911,17.0693069 C72.8003911,16.2244224 72.5887326,15.410341 72.1654157,14.6270627 C71.7420988,13.8437844 71.0983042,13.2233223 70.2340322,12.7656766 C71.0453896,12.3960396 71.5877645,11.8811881 71.8611566,11.2211221 C72.1345488,10.5610561 72.2712449,9.8789879 72.2712449,9.17491749 C72.2712449,8.29482948 72.0948629,7.52915292 71.7420988,6.87788779 C71.3893346,6.22662266 70.9086935,5.68976898 70.3001754,5.26732673 C69.6916573,4.84488449 68.9817195,4.52805281 68.1703621,4.31683168 C67.3590046,4.10561056 66.4859134,4 65.5510885,4 L65.5510885,4 L56.0793719,4 L56.0793719,22.4818482 L65.6304604,22.4818482 Z M65.4188019,11.049505 L61.2385472,11.049505 L61.2385472,8.22442244 L65.4717166,8.22442244 C65.9832245,8.22442244 66.3800842,8.36523652 66.6622955,8.64686469 C66.9445068,8.92849285 67.0856124,9.27172717 67.0856124,9.67656766 C67.0856124,10.0814081 66.9445068,10.4114411 66.6622955,10.6666667 C66.3800842,10.9218922 65.9655863,11.049505 65.4188019,11.049505 L65.4188019,11.049505 Z M65.6569177,18.4158416 L61.2385472,18.4158416 L61.2385472,14.9042904 L65.6569177,14.9042904 C66.3095313,14.9042904 66.7989916,15.0715072 67.1252984,15.4059406 C67.4516052,15.740374 67.6147586,16.1628163 67.6147586,16.6732673 C67.6147586,17.1837184 67.4560147,17.6017602 67.138527,17.9273927 C66.8210393,18.2530253 66.3271696,18.4158416 65.6569177,18.4158416 L65.6569177,18.4158416 Z M80.1405688,22.4818482 L80.1405688,15.6963696 C80.1405688,14.8338834 80.3610464,14.2090209 80.8020016,13.8217822 C81.2429567,13.4345435 81.7721029,13.2409241 82.3894401,13.2409241 C82.7951188,13.2409241 83.1611116,13.2937294 83.4874184,13.3993399 C83.8137252,13.5049505 84.179718,13.7161716 84.5853967,14.0330033 L84.5853967,14.0330033 L86.5432376,10.5214521 C86.1199206,10.0638064 85.6084127,9.71617162 85.0087137,9.47854785 C84.4090147,9.24092409 83.7740392,9.12211221 83.1037874,9.12211221 C82.468812,9.12211221 81.869113,9.25852585 81.3046904,9.53135314 C80.7402678,9.80418042 80.2816745,10.2486249 79.9289104,10.8646865 L79.9289104,10.8646865 L79.63788,9.43894389 L75.272424,9.43894389 L75.272424,22.4818482 L80.1405688,22.4818482 Z M92.9574095,22.7194719 C93.6982141,22.7546755 94.4610665,22.6490649 95.2459667,22.4026403 C96.0308669,22.1562156 96.7055282,21.7161716 97.2699508,21.0825083 L97.2699508,21.0825083 L97.4816093,22.4818482 L101.979352,22.4818482 L101.979352,9.43894389 L97.4022374,9.43894389 L97.1641216,10.8382838 C96.8113575,10.310231 96.3174877,9.89658966 95.6825123,9.59735974 C95.0475369,9.29812981 94.2626367,9.14851485 93.3278118,9.14851485 C92.3753487,9.14851485 91.5110766,9.32453245 90.7349955,9.67656766 C89.9589145,10.0286029 89.2930722,10.5082508 88.7374687,11.1155116 C88.1818652,11.7227723 87.7497292,12.440044 87.4410606,13.2673267 C87.132392,14.0946095 86.9780577,14.9922992 86.9780577,15.960396 C86.9780577,16.9108911 87.1103442,17.7865787 87.3749173,18.5874587 C87.6394904,19.3883388 88.0231214,20.0836084 88.5258103,20.6732673 C89.0284991,21.2629263 89.6546554,21.7381738 90.4042792,22.0990099 C91.1539029,22.459846 92.0049464,22.6666667 92.9574095,22.7194719 Z M94.4390188,18.8118812 C93.6982141,18.8118812 93.0764674,18.5654565 92.5737785,18.0726073 C92.0710896,17.579758 91.8197452,16.8756876 91.8197452,15.960396 C91.8197452,15.0451045 92.0710896,14.3366337 92.5737785,13.8349835 C93.0764674,13.3333333 93.6982141,13.0825083 94.4390188,13.0825083 C95.3032909,13.0825083 95.9691331,13.3421342 96.4365456,13.8613861 C96.9039581,14.3806381 97.1376643,15.080308 97.1376643,15.960396 C97.1376643,16.3476348 97.0759306,16.7128713 96.9524631,17.0561056 C96.8289957,17.3993399 96.6482041,17.7029703 96.4100883,17.9669967 C96.1719725,18.2310231 95.8853517,18.4378438 95.5502257,18.5874587 C95.2150998,18.7370737 94.8446975,18.8118812 94.4390188,18.8118812 Z M109.928048,22.4818482 L109.928048,15.6171617 C109.928048,14.7546755 110.157344,14.1210121 110.615938,13.7161716 C111.074531,13.3113311 111.594858,13.1089109 112.176919,13.1089109 C112.635512,13.1089109 113.05442,13.2673267 113.433641,13.5841584 C113.812862,13.9009901 114.002473,14.4642464 114.002473,15.2739274 L114.002473,15.2739274 L114.002473,22.4818482 L118.870618,22.4818482 L118.870618,15.2475248 C118.870618,14.0858086 118.733922,13.1133113 118.46053,12.330033 C118.187138,11.5467547 117.816735,10.9174917 117.349323,10.4422442 C116.88191,9.9669967 116.339535,9.62816282 115.722198,9.42574257 C115.104861,9.22332233 114.452247,9.12211221 113.764357,9.12211221 C113.076467,9.10451045 112.35771,9.22772277 111.608087,9.49174917 C110.858463,9.75577558 110.20144,10.2134213 109.637017,10.8646865 L109.637017,10.8646865 L109.425359,9.43894389 L105.112817,9.43894389 L105.112817,22.4818482 L109.928048,22.4818482 Z M127.136802,22.7194719 C127.877606,22.7546755 128.640459,22.6490649 129.425359,22.4026403 C130.210259,22.1562156 130.88492,21.7161716 131.449343,21.0825083 L131.449343,21.0825083 L131.661001,22.4818482 L136,22.4818482 L136,4 L131.131855,4 L131.131855,10.5478548 C130.779091,10.1078108 130.29845,9.76457646 129.689932,9.51815182 C129.081414,9.27172717 128.353838,9.14851485 127.507204,9.14851485 C126.554741,9.14851485 125.690469,9.31573157 124.914388,9.65016502 C124.138307,9.98459846 123.472464,10.4554455 122.916861,11.0627063 C122.361257,11.669967 121.929121,12.3872387 121.620453,13.2145215 C121.311784,14.0418042 121.15745,14.9570957 121.15745,15.960396 C121.15745,18.0374037 121.673367,19.6523652 122.705202,20.8052805 C123.737037,21.9581958 125.214237,22.5962596 127.136802,22.7194719 Z M128.618411,18.8118812 C127.877606,18.8118812 127.255859,18.5654565 126.753171,18.0726073 C126.250482,17.579758 125.999137,16.8756876 125.999137,15.960396 C125.999137,15.0451045 126.250482,14.3366337 126.753171,13.8349835 C127.255859,13.3333333 127.877606,13.0825083 128.618411,13.0825083 C129.041728,13.0825083 129.41654,13.1661166 129.742846,13.3333333 C130.069153,13.5005501 130.342545,13.7205721 130.563023,13.9933993 C130.783501,14.2662266 130.951064,14.5830583 131.065712,14.9438944 C131.18036,15.3047305 131.237684,15.6875688 131.237684,16.0924092 C131.237684,16.4268427 131.18036,16.7612761 131.065712,17.0957096 C130.951064,17.430143 130.779091,17.7205721 130.549794,17.9669967 C130.320498,18.2134213 130.042696,18.4158416 129.716389,18.5742574 C129.390082,18.7326733 129.02409,18.8118812 128.618411,18.8118812 Z"/>
    <polygon fill="#C10" points="21.767 0 8.93 0 13.953 9.714"/>
  </g>
</svg>
